<svg xmlns="http://www.w3.org/2000/svg" xmlns:xlink="http://www.w3.org/1999/xlink" contentStyleType="text/css" height="333px" preserveAspectRatio="none" style="width:498px;height:333px;background:#FFFFFF;" version="1.1" viewBox="0 0 498 333" width="498px" zoomAndPan="magnify"><defs/><g><!--class Service--><g id="elem_Service"><rect codeLine="4" fill="#F1F1F1" height="65.6094" id="Service" rx="2.5" ry="2.5" style="stroke:#181818;stroke-width:0.5;" width="78.6826" x="197" y="134"/><ellipse cx="212" cy="150" fill="#B4A7E5" rx="11" ry="11" style="stroke:#181818;stroke-width:1.0;"/><path d="M212.9531,146.6406 L212.9531,153.2969 L214.6719,153.2969 Q215.2813,153.2969 215.5469,153.5313 Q215.8125,153.7656 215.8125,154.1563 Q215.8125,154.5313 215.5469,154.7656 Q215.2813,155 214.6719,155 L209.5313,155 Q208.9219,155 208.6563,154.7656 Q208.3906,154.5313 208.3906,154.1406 Q208.3906,153.7656 208.6563,153.5313 Q208.9219,153.2969 209.5313,153.2969 L211.25,153.2969 L211.25,146.6406 L209.5313,146.6406 Q208.9219,146.6406 208.6563,146.4063 Q208.3906,146.1719 208.3906,145.7813 Q208.3906,145.4063 208.6563,145.1719 Q208.9219,144.9375 209.5313,144.9375 L214.6719,144.9375 Q215.2813,144.9375 215.5469,145.1719 Q215.8125,145.4063 215.8125,145.7813 Q215.8125,146.1719 215.5469,146.4063 Q215.2813,146.6406 214.6719,146.6406 L212.9531,146.6406 Z " fill="#000000"/><text fill="#000000" font-family="sans-serif" font-size="14" font-style="italic" lengthAdjust="spacing" textLength="46.6826" x="226" y="155.7285">Service</text><line style="stroke:#181818;stroke-width:0.5;" x1="198" x2="274.6826" y1="166" y2="166"/><line style="stroke:#181818;stroke-width:0.5;" x1="198" x2="274.6826" y1="174" y2="174"/><text fill="#000000" font-family="sans-serif" font-size="14" lengthAdjust="spacing" textLength="66.5342" x="203" y="192.5332">+execute()</text></g><!--class UserService--><g id="elem_UserService"><rect codeLine="9" fill="#F1F1F1" height="48" id="UserService" rx="2.5" ry="2.5" style="stroke:#181818;stroke-width:0.5;" width="108.2412" x="64.5" y="278"/><ellipse cx="79.5" cy="294" fill="#ADD1B2" rx="11" ry="11" style="stroke:#181818;stroke-width:1.0;"/><path d="M82.2656,289.875 Q82.4219,289.6563 82.6094,289.5469 Q82.7969,289.4375 83.0156,289.4375 Q83.3906,289.4375 83.625,289.7031 Q83.8594,289.9531 83.8594,290.5625 L83.8594,292.0156 Q83.8594,292.625 83.625,292.8906 Q83.3906,293.1563 83.0156,293.1563 Q82.6719,293.1563 82.4688,292.9531 Q82.2656,292.7656 82.1563,292.25 Q82.1094,291.8906 81.9219,291.7031 Q81.5938,291.3281 80.9844,291.1094 Q80.375,290.8906 79.75,290.8906 Q78.9844,290.8906 78.3438,291.2188 Q77.7188,291.5469 77.2188,292.2969 Q76.7344,293.0469 76.7344,294.0781 L76.7344,295.1719 Q76.7344,296.4063 77.625,297.2344 Q78.5156,298.0469 80.1094,298.0469 Q81.0469,298.0469 81.7031,297.7969 Q82.0938,297.6406 82.5156,297.2031 Q82.7813,296.9375 82.9219,296.8594 Q83.0781,296.7813 83.2813,296.7813 Q83.6094,296.7813 83.8594,297.0469 Q84.125,297.2969 84.125,297.6406 Q84.125,297.9844 83.7813,298.3906 Q83.2813,298.9688 82.4844,299.2969 Q81.4063,299.75 80.1094,299.75 Q78.5938,299.75 77.3906,299.125 Q76.4063,298.625 75.7188,297.5625 Q75.0313,296.4844 75.0313,295.2031 L75.0313,294.0469 Q75.0313,292.7188 75.6406,291.5781 Q76.2656,290.4219 77.3594,289.8125 Q78.4531,289.1875 79.6875,289.1875 Q80.4219,289.1875 81.0625,289.3594 Q81.7188,289.5156 82.2656,289.875 Z " fill="#000000"/><text fill="#000000" font-family="sans-serif" font-size="14" lengthAdjust="spacing" textLength="76.2412" x="93.5" y="299.7285">UserService</text><line style="stroke:#181818;stroke-width:0.5;" x1="65.5" x2="171.7412" y1="310" y2="310"/><line style="stroke:#181818;stroke-width:0.5;" x1="65.5" x2="171.7412" y1="318" y2="318"/></g><!--class PaymentService--><g id="elem_PaymentService"><rect codeLine="10" fill="#F1F1F1" height="48" id="PaymentService" rx="2.5" ry="2.5" style="stroke:#181818;stroke-width:0.5;" width="133.9307" x="220.5" y="278"/><ellipse cx="235.5" cy="294" fill="#ADD1B2" rx="11" ry="11" style="stroke:#181818;stroke-width:1.0;"/><path d="M238.2656,289.875 Q238.4219,289.6563 238.6094,289.5469 Q238.7969,289.4375 239.0156,289.4375 Q239.3906,289.4375 239.625,289.7031 Q239.8594,289.9531 239.8594,290.5625 L239.8594,292.0156 Q239.8594,292.625 239.625,292.8906 Q239.3906,293.1563 239.0156,293.1563 Q238.6719,293.1563 238.4688,292.9531 Q238.2656,292.7656 238.1563,292.25 Q238.1094,291.8906 237.9219,291.7031 Q237.5938,291.3281 236.9844,291.1094 Q236.375,290.8906 235.75,290.8906 Q234.9844,290.8906 234.3438,291.2188 Q233.7188,291.5469 233.2188,292.2969 Q232.7344,293.0469 232.7344,294.0781 L232.7344,295.1719 Q232.7344,296.4063 233.625,297.2344 Q234.5156,298.0469 236.1094,298.0469 Q237.0469,298.0469 237.7031,297.7969 Q238.0938,297.6406 238.5156,297.2031 Q238.7813,296.9375 238.9219,296.8594 Q239.0781,296.7813 239.2813,296.7813 Q239.6094,296.7813 239.8594,297.0469 Q240.125,297.2969 240.125,297.6406 Q240.125,297.9844 239.7813,298.3906 Q239.2813,298.9688 238.4844,299.2969 Q237.4063,299.75 236.1094,299.75 Q234.5938,299.75 233.3906,299.125 Q232.4063,298.625 231.7188,297.5625 Q231.0313,296.4844 231.0313,295.2031 L231.0313,294.0469 Q231.0313,292.7188 231.6406,291.5781 Q232.2656,290.4219 233.3594,289.8125 Q234.4531,289.1875 235.6875,289.1875 Q236.4219,289.1875 237.0625,289.3594 Q237.7188,289.5156 238.2656,289.875 Z " fill="#000000"/><text fill="#000000" font-family="sans-serif" font-size="14" lengthAdjust="spacing" textLength="101.9307" x="249.5" y="299.7285">PaymentService</text><line style="stroke:#181818;stroke-width:0.5;" x1="221.5" x2="353.4307" y1="310" y2="310"/><line style="stroke:#181818;stroke-width:0.5;" x1="221.5" x2="353.4307" y1="318" y2="318"/></g><!--class ServiceFactory--><g id="elem_ServiceFactory"><rect codeLine="16" fill="#F1F1F1" height="65.6094" id="ServiceFactory" rx="2.5" ry="2.5" style="stroke:#181818;stroke-width:0.5;" width="169.5547" x="157.5" y="7"/><ellipse cx="192.3883" cy="23" fill="#B4A7E5" rx="11" ry="11" style="stroke:#181818;stroke-width:1.0;"/><path d="M193.3415,19.6406 L193.3415,26.2969 L195.0602,26.2969 Q195.6696,26.2969 195.9352,26.5313 Q196.2008,26.7656 196.2008,27.1563 Q196.2008,27.5313 195.9352,27.7656 Q195.6696,28 195.0602,28 L189.9196,28 Q189.3102,28 189.0446,27.7656 Q188.779,27.5313 188.779,27.1406 Q188.779,26.7656 189.0446,26.5313 Q189.3102,26.2969 189.9196,26.2969 L191.6383,26.2969 L191.6383,19.6406 L189.9196,19.6406 Q189.3102,19.6406 189.0446,19.4063 Q188.779,19.1719 188.779,18.7813 Q188.779,18.4063 189.0446,18.1719 Q189.3102,17.9375 189.9196,17.9375 L195.0602,17.9375 Q195.6696,17.9375 195.9352,18.1719 Q196.2008,18.4063 196.2008,18.7813 Q196.2008,19.1719 195.9352,19.4063 Q195.6696,19.6406 195.0602,19.6406 L193.3415,19.6406 Z " fill="#000000"/><text fill="#000000" font-family="sans-serif" font-size="14" font-style="italic" lengthAdjust="spacing" textLength="93.3584" x="210.808" y="28.7285">ServiceFactory</text><line style="stroke:#181818;stroke-width:0.5;" x1="158.5" x2="326.0547" y1="39" y2="39"/><line style="stroke:#181818;stroke-width:0.5;" x1="158.5" x2="326.0547" y1="47" y2="47"/><text fill="#000000" font-family="sans-serif" font-size="14" lengthAdjust="spacing" textLength="157.5547" x="163.5" y="65.5332">+createService(): Service</text></g><!--class UserServiceFactory--><g id="elem_UserServiceFactory"><rect codeLine="21" fill="#F1F1F1" height="48" id="UserServiceFactory" rx="2.5" ry="2.5" style="stroke:#181818;stroke-width:0.5;" width="154.917" x="7" y="143"/><ellipse cx="22" cy="159" fill="#ADD1B2" rx="11" ry="11" style="stroke:#181818;stroke-width:1.0;"/><path d="M24.7656,154.875 Q24.9219,154.6563 25.1094,154.5469 Q25.2969,154.4375 25.5156,154.4375 Q25.8906,154.4375 26.125,154.7031 Q26.3594,154.9531 26.3594,155.5625 L26.3594,157.0156 Q26.3594,157.625 26.125,157.8906 Q25.8906,158.1563 25.5156,158.1563 Q25.1719,158.1563 24.9688,157.9531 Q24.7656,157.7656 24.6563,157.25 Q24.6094,156.8906 24.4219,156.7031 Q24.0938,156.3281 23.4844,156.1094 Q22.875,155.8906 22.25,155.8906 Q21.4844,155.8906 20.8438,156.2188 Q20.2188,156.5469 19.7188,157.2969 Q19.2344,158.0469 19.2344,159.0781 L19.2344,160.1719 Q19.2344,161.4063 20.125,162.2344 Q21.0156,163.0469 22.6094,163.0469 Q23.5469,163.0469 24.2031,162.7969 Q24.5938,162.6406 25.0156,162.2031 Q25.2813,161.9375 25.4219,161.8594 Q25.5781,161.7813 25.7813,161.7813 Q26.1094,161.7813 26.3594,162.0469 Q26.625,162.2969 26.625,162.6406 Q26.625,162.9844 26.2813,163.3906 Q25.7813,163.9688 24.9844,164.2969 Q23.9063,164.75 22.6094,164.75 Q21.0938,164.75 19.8906,164.125 Q18.9063,163.625 18.2188,162.5625 Q17.5313,161.4844 17.5313,160.2031 L17.5313,159.0469 Q17.5313,157.7188 18.1406,156.5781 Q18.7656,155.4219 19.8594,154.8125 Q20.9531,154.1875 22.1875,154.1875 Q22.9219,154.1875 23.5625,154.3594 Q24.2188,154.5156 24.7656,154.875 Z " fill="#000000"/><text fill="#000000" font-family="sans-serif" font-size="14" lengthAdjust="spacing" textLength="122.917" x="36" y="164.7285">UserServiceFactory</text><line style="stroke:#181818;stroke-width:0.5;" x1="8" x2="160.917" y1="175" y2="175"/><line style="stroke:#181818;stroke-width:0.5;" x1="8" x2="160.917" y1="183" y2="183"/></g><!--class PaymentServiceFactory--><g id="elem_PaymentServiceFactory"><rect codeLine="22" fill="#F1F1F1" height="48" id="PaymentServiceFactory" rx="2.5" ry="2.5" style="stroke:#181818;stroke-width:0.5;" width="180.6064" x="311" y="143"/><ellipse cx="326" cy="159" fill="#ADD1B2" rx="11" ry="11" style="stroke:#181818;stroke-width:1.0;"/><path d="M328.7656,154.875 Q328.9219,154.6563 329.1094,154.5469 Q329.2969,154.4375 329.5156,154.4375 Q329.8906,154.4375 330.125,154.7031 Q330.3594,154.9531 330.3594,155.5625 L330.3594,157.0156 Q330.3594,157.625 330.125,157.8906 Q329.8906,158.1563 329.5156,158.1563 Q329.1719,158.1563 328.9688,157.9531 Q328.7656,157.7656 328.6563,157.25 Q328.6094,156.8906 328.4219,156.7031 Q328.0938,156.3281 327.4844,156.1094 Q326.875,155.8906 326.25,155.8906 Q325.4844,155.8906 324.8438,156.2188 Q324.2188,156.5469 323.7188,157.2969 Q323.2344,158.0469 323.2344,159.0781 L323.2344,160.1719 Q323.2344,161.4063 324.125,162.2344 Q325.0156,163.0469 326.6094,163.0469 Q327.5469,163.0469 328.2031,162.7969 Q328.5938,162.6406 329.0156,162.2031 Q329.2813,161.9375 329.4219,161.8594 Q329.5781,161.7813 329.7813,161.7813 Q330.1094,161.7813 330.3594,162.0469 Q330.625,162.2969 330.625,162.6406 Q330.625,162.9844 330.2813,163.3906 Q329.7813,163.9688 328.9844,164.2969 Q327.9063,164.75 326.6094,164.75 Q325.0938,164.75 323.8906,164.125 Q322.9063,163.625 322.2188,162.5625 Q321.5313,161.4844 321.5313,160.2031 L321.5313,159.0469 Q321.5313,157.7188 322.1406,156.5781 Q322.7656,155.4219 323.8594,154.8125 Q324.9531,154.1875 326.1875,154.1875 Q326.9219,154.1875 327.5625,154.3594 Q328.2188,154.5156 328.7656,154.875 Z " fill="#000000"/><text fill="#000000" font-family="sans-serif" font-size="14" lengthAdjust="spacing" textLength="148.6064" x="340" y="164.7285">PaymentServiceFactory</text><line style="stroke:#181818;stroke-width:0.5;" x1="312" x2="490.6064" y1="175" y2="175"/><line style="stroke:#181818;stroke-width:0.5;" x1="312" x2="490.6064" y1="183" y2="183"/></g><!--reverse link Service to UserService--><g id="link_Service_UserService"><path codeLine="12" d="M195.9895,213.6605 C174.6995,237.6405 158.1,256.37 139.04,277.85 " fill="none" id="Service-backto-UserService" style="stroke:#181818;stroke-width:1.0;stroke-dasharray:7.0,7.0;"/><polygon fill="none" points="207.94,200.2,191.5026,209.677,200.4763,217.644,207.94,200.2" style="stroke:#181818;stroke-width:1.0;"/></g><!--reverse link Service to PaymentService--><g id="link_Service_PaymentService"><path codeLine="13" d="M255.2914,217.008 C264.4814,240.988 270.39,256.37 278.62,277.85 " fill="none" id="Service-backto-PaymentService" style="stroke:#181818;stroke-width:1.0;stroke-dasharray:7.0,7.0;"/><polygon fill="none" points="248.85,200.2,249.6888,219.1551,260.8941,214.8608,248.85,200.2" style="stroke:#181818;stroke-width:1.0;"/></g><!--reverse link ServiceFactory to UserServiceFactory--><g id="link_ServiceFactory_UserServiceFactory"><path codeLine="24" d="M187.6952,84.3602 C160.0852,106.2102 138.35,123.4 113.58,142.99 " fill="none" id="ServiceFactory-backto-UserServiceFactory" style="stroke:#181818;stroke-width:1.0;stroke-dasharray:7.0,7.0;"/><polygon fill="none" points="201.81,73.19,183.9718,79.6552,191.4186,89.0651,201.81,73.19" style="stroke:#181818;stroke-width:1.0;"/></g><!--reverse link ServiceFactory to PaymentServiceFactory--><g id="link_ServiceFactory_PaymentServiceFactory"><path codeLine="25" d="M297.5981,84.318 C325.3781,106.168 347.31,123.4 372.24,142.99 " fill="none" id="ServiceFactory-backto-PaymentServiceFactory" style="stroke:#181818;stroke-width:1.0;stroke-dasharray:7.0,7.0;"/><polygon fill="none" points="283.45,73.19,293.8887,89.034,301.3074,79.602,283.45,73.19" style="stroke:#181818;stroke-width:1.0;"/></g><!--link UserServiceFactory to UserService--><g id="link_UserServiceFactory_UserService"><path codeLine="27" d="M90.42,191.17 C96.62,215.43 104.8239,247.507 111.0439,271.837 " fill="none" id="UserServiceFactory-to-UserService" style="stroke:#181818;stroke-width:1.0;"/><polygon fill="#181818" points="112.53,277.65,114.1762,267.9397,111.2916,272.8058,106.4255,269.9212,112.53,277.65" style="stroke:#181818;stroke-width:1.0;"/><text fill="#000000" font-family="sans-serif" font-size="13" lengthAdjust="spacing" textLength="42.6309" x="106.5" y="244.4951">creates</text></g><!--link PaymentServiceFactory to PaymentService--><g id="link_PaymentServiceFactory_PaymentService"><path codeLine="28" d="M381.64,191.17 C360.85,215.43 332.2754,248.765 311.4154,273.095 " fill="none" id="PaymentServiceFactory-to-PaymentService" style="stroke:#181818;stroke-width:1.0;"/><polygon fill="#181818" points="307.51,277.65,316.4047,273.4211,310.7645,273.8542,310.3314,268.2139,307.51,277.65" style="stroke:#181818;stroke-width:1.0;"/><text fill="#000000" font-family="sans-serif" font-size="13" lengthAdjust="spacing" textLength="42.6309" x="348.5" y="244.4951">creates</text></g><!--SRC=[TO_D2i8m48JlUOgzsI8MpqK54GHlXU83nBX2q2QoISNwy-x6Df6sjhc4P6Q-tJ5dgQwSU07YmerPMqloK5hS2Qro-K2OCpQ1fJkGaJwMmjOF9fL5Ed61a2FTfBkV3DoPuXs5oqSnU_-I6wq4eSM0C0sZdWXxW-GP_YVZLO7AXayM9YnUITAnTuH-Aimcv5RJoDPRBfnOXUN5runUY-8qs8QwUF1O5qyUh1GqrjkYNp3uXcmZnFyqp6QhDXHIQ6eQDiYe_Lsb5Va0]--></g></svg>